<?xml version="1.0" encoding="UTF-8"?>
<!-- Generator: Adobe Illustrator 18.1.1, SVG Export Plug-In . SVG Version: 6.00 Build 0)  -->
<svg version="1.1" id="Layer_1" xmlns="http://www.w3.org/2000/svg" xmlns:xlink="http://www.w3.org/1999/xlink" x="0px" y="0px" viewBox="0 0 215 78" enable-background="new 0 0 215 78" xml:space="preserve">
<path fill="#FFFFFF" d="M68.9,39.9c-1.9,0.8-3.7,1.2-5.5,1.2c-2.2,0-3.9-0.6-5-1.8c-1.2-1.2-1.7-3-1.7-5.3v-4.1c0-2.3,0.5-4,1.6-5.2  c1-1.2,2.6-1.8,4.6-1.8c1.9,0,3.3,0.6,4.4,1.7c1.1,1.1,1.6,2.6,1.6,4.6v3.7h-7.9v1.5c0,1,0.3,1.8,0.9,2.3c0.6,0.5,1.4,0.8,2.5,0.8  c1.1,0,2.5-0.4,4.1-1.2L68.9,39.9L68.9,39.9z M60.9,30.4H65v-1.5c0-1.9-0.7-2.9-2.1-2.9c-0.6,0-1.1,0.2-1.5,0.7  c-0.4,0.5-0.6,1.2-0.6,2.1V30.4L60.9,30.4z M143.2,33.6c0,1.3,0.1,2.3,0.5,2.8c0.4,0.6,1.1,0.8,2.1,0.8l0.6,0V41  c-0.7,0.1-1.3,0.1-1.9,0.1c-2.2,0-3.7-0.4-4.6-1.3c-0.9-0.9-1.3-2.4-1.3-4.5v-8.5h-2.5v-3.3h2.5v-6.2h4.5v6.2h3.1v3.3h-3.1V33.6  L143.2,33.6z M70.6,44.7l2.8-1.7c0.2,0.3,0.5,0.7,1,1c0.4,0.4,1,0.6,1.8,0.6c0.4,0,0.9-0.1,1.4-0.3c0.5-0.2,0.9-0.6,1.2-1.2  c0.2-0.5,0.3-1.2,0.3-2l0-1.7c-1.1,1.3-2.4,1.8-3.8,1.8c-1.7,0-2.9-0.7-3.6-2.2c-0.7-1.5-1-3.7-1-6.6c0-1.6,0-3,0.1-4.2  c0.1-1.2,0.4-2.2,0.8-3c0.4-0.7,0.9-1.2,1.5-1.6c0.7-0.4,1.4-0.6,2.3-0.6c0.8,0,1.8,0.3,2.2,0.6c0.3,0.2,1,0.6,1.3,1.2v-1.3h4.4  v15.4c0,0.9,0,1.8-0.1,2.8c-0.1,1-0.2,1.9-0.6,2.8c-0.4,0.9-1.1,1.6-2.1,2.2c-1,0.6-2.3,0.9-4.1,0.9c-1.3,0-2.3-0.2-3.1-0.5  c-0.8-0.3-1.4-0.7-1.9-1.1C71,45.5,70.7,45.1,70.6,44.7L70.6,44.7z M79,35.2v-6.4c-0.1-0.6-0.2-1.1-0.3-1.5c-0.3-0.7-0.8-1-1.6-1  c-0.9,0-1.4,0.4-1.6,1.4c-0.2,0.9-0.3,2.3-0.2,4.2v0.4c0,1.8,0.1,3.2,0.3,4.1c0.2,0.9,0.8,1.4,1.6,1.4C78.2,37.7,78.8,36.9,79,35.2  L79,35.2z M100.1,40.8V23.5h4.1v3.2c0.6-1,1.2-1.8,2-2.5c0.8-0.7,1.8-1,2.9-1.1c1.4,0,2.4,0.4,3,1c0.6,0.6,1,1.3,1.1,2.1  c0.1,0.8,0.2,1.4,0.2,1.9v12.6h-4.5V29.5c0-0.2,0-0.5,0-0.9c0-0.4-0.2-0.7-0.4-1c-0.2-0.3-0.6-0.4-1-0.5c-0.6,0-1.1,0.2-1.6,0.5  c-0.4,0.3-0.9,0.8-1.3,1.3v11.8H100.1L100.1,40.8z M85.4,31.7c0-0.8,0-1.7,0.1-2.7c0.1-1,0.3-1.9,0.7-2.8c0.4-0.9,1-1.6,1.8-2.2  c0.9-0.6,2-0.9,3.6-0.9c0.6,0,1.2,0,1.9,0.1c0.7,0.1,1.3,0.3,1.9,0.7c0.6,0.4,1.2,1,1.7,1.8c0.4,0.7,0.7,1.6,0.8,2.6  c0.1,1,0.2,2.3,0.2,3.9c0,1.7,0,3.2-0.2,4.3c-0.2,1.1-0.7,2.1-1.5,3c-0.2,0.3-0.7,0.7-1.3,1C94.4,40.8,93.4,41,92,41  c-0.5,0-1.1,0-1.8-0.1c-0.7-0.1-1.3-0.3-1.9-0.6c-0.9-0.5-1.5-1.2-1.9-2c-0.4-0.8-0.7-1.8-0.8-2.9C85.5,34.3,85.4,33.1,85.4,31.7  L85.4,31.7z M89.6,33.6c0,0.8,0,1.5,0.1,2c0,0.2,0.1,0.5,0.1,0.7l0.1,0.3c0.2,0.5,0.5,0.9,0.9,1l0.4,0.1c0.2,0.1,0.4,0.1,0.5,0.1  c0.3,0,0.5,0,0.7-0.1c0.4-0.1,0.7-0.2,0.9-0.5c0.1-0.1,0.2-0.3,0.3-0.5c0.2-0.4,0.3-0.8,0.3-1.3c0.1-0.7,0.1-1.4,0.1-2.1v-1.6  c0-0.4,0-0.8,0-1.1c0-0.9,0-1.6-0.1-2.3c-0.1-0.7-0.3-1.2-0.6-1.6c-0.3-0.4-0.8-0.6-1.6-0.6c-0.7,0-1.2,0.2-1.5,0.7  c-0.3,0.4-0.5,1-0.5,1.7c0,0.4-0.1,0.8-0.1,1.2c0,0.2,0,0.4,0,0.6V33.6L89.6,33.6z M47.3,40.8V23.5h3.9l0.3,2.2c0.6-1.7,2-2.6,4-2.7  h0.3v4.2h-0.4c-1.3,0-2.2,0.3-2.8,1c-0.6,0.7-0.8,1.7-0.8,3.2v9.3H47.3L47.3,40.8z M168.9,33.6c0,1.3,0.1,2.3,0.5,2.8  c0.4,0.6,1.1,0.8,2.1,0.8l0.6,0V41c-0.7,0.1-1.3,0.1-1.9,0.1c-2.2,0-3.7-0.4-4.6-1.3c-0.9-0.9-1.3-2.4-1.3-4.5v-8.5h-2.5v-3.3h2.5  v-6.2h4.5v6.2h3.1v3.3h-3.1V33.6L168.9,33.6z M185.3,39.9c-1.9,0.8-3.7,1.2-5.5,1.2c-2.2,0-3.9-0.6-5-1.8c-1.1-1.2-1.7-3-1.7-5.3  v-4.1c0-2.3,0.5-4,1.6-5.2c1-1.2,2.6-1.8,4.6-1.8c1.9,0,3.3,0.6,4.4,1.7c1.1,1.1,1.6,2.6,1.6,4.6v3.7h-7.9v1.5c0,1,0.3,1.8,0.9,2.3  s1.4,0.8,2.5,0.8c1.1,0,2.5-0.4,4.1-1.2L185.3,39.9L185.3,39.9z M177.3,30.4h4.2v-1.5c0-1.9-0.7-2.9-2.1-2.9c-0.6,0-1.1,0.2-1.5,0.7  c-0.4,0.5-0.6,1.2-0.6,2.1V30.4L177.3,30.4z M157,38.7c-0.8,0.8-1.6,1.4-2.3,1.7c-0.8,0.4-1.6,0.6-2.5,0.6c-1.3,0-2.4-0.5-3.2-1.3  c-0.8-0.9-1.2-2-1.2-3.5c0-3.9,2.8-6.2,8.5-7v-1.4c0-0.5-0.2-0.9-0.6-1.3c-0.4-0.3-0.9-0.5-1.7-0.5c-1.3,0-2.6,0.6-4,1.8l-2.1-2.7  c1.8-1.5,3.9-2.3,6.3-2.2c4.3,0,6.4,2,6.5,5.9v7.4c0,0.6,0.3,0.9,0.8,1.1v3.4c-0.3,0-0.5,0-0.7,0C159,40.8,157.7,40.1,157,38.7  L157,38.7z M156.3,31.9c-1.4,0.2-2.4,0.6-3.1,1.3c-0.7,0.6-1.1,1.4-1.1,2.3c0,0.6,0.2,1.2,0.5,1.5c0.3,0.4,0.8,0.6,1.3,0.6  c0.7,0,1.3-0.3,1.7-0.9c0.4-0.6,0.6-1.5,0.6-2.7V31.9L156.3,31.9z M89.8,47.2v5.7c0,0.7,0.1,1.1,0.2,1.4c0.2,0.3,0.5,0.4,1,0.4  c0.5,0,0.8-0.1,1-0.4c0.2-0.3,0.2-0.8,0.2-1.4v-5.7H94v6.1c0,1.1-0.3,1.9-0.8,2.4c-0.5,0.5-1.3,0.8-2.3,0.8c-2.1,0-3.1-1-3.1-3.2  v-6.1H89.8L89.8,47.2z M99.1,56.3v-9.1h1.8l2.8,5.5l0-5.5h1.7v9.1h-1.6l-3-6.1l0,6.1H99.1L99.1,56.3z M110.5,56.3v-0.9V48v-0.8h1.9  V48v7.4v0.9H110.5L110.5,56.3z M140.3,48.7v2.4h0.5c0.6,0,1-0.1,1.3-0.2c0.3-0.2,0.4-0.5,0.4-1c0-0.5-0.1-0.8-0.4-1  c-0.3-0.2-0.7-0.2-1.3-0.2H140.3L140.3,48.7z M138.4,47.2h2.2c0.6,0,1.1,0,1.5,0.1c0.4,0,0.8,0.2,1.1,0.3c0.4,0.2,0.7,0.5,0.9,0.9  c0.2,0.4,0.3,0.9,0.3,1.4c0,0.6-0.1,1.1-0.4,1.5c-0.3,0.4-0.7,0.7-1.2,0.9l1.9,3.9h-2.1l-1.7-3.7h-0.6v3.7h-1.9V47.2L138.4,47.2z   M121.5,56.3h-2l-2.6-9.1h1.9l1.7,6.3l1.7-6.3h1.9L121.5,56.3L121.5,56.3z M128.3,56.3v-9.1h5.8v1.8h-3.9v1.6h2.7v1.8h-2.7v2.2h4.2  v1.8H128.3L128.3,56.3z M148.5,54.7l1.5-1.1c0.2,0.4,0.5,0.7,0.8,0.9c0.3,0.2,0.6,0.3,0.9,0.3c0.3,0,0.6-0.1,0.8-0.3  c0.2-0.2,0.3-0.4,0.3-0.7c0-0.5-0.3-0.9-1-1.2l-1.2-0.5c-0.4-0.2-0.7-0.4-1-0.6c-0.6-0.5-0.9-1.2-0.9-2c0-0.8,0.3-1.5,0.8-1.9  c0.5-0.5,1.2-0.7,2-0.7c1.3,0,2.2,0.5,2.8,1.6l-1.4,1c-0.5-0.7-1-1-1.6-1c-0.3,0-0.5,0.1-0.7,0.2c-0.2,0.2-0.3,0.4-0.3,0.6  c0,0.2,0.1,0.4,0.3,0.6c0.2,0.2,0.4,0.3,0.8,0.5l1.2,0.5c0.4,0.2,0.7,0.3,0.9,0.6c0.6,0.5,0.9,1.2,0.9,2.1c0,0.8-0.3,1.5-0.8,2  c-0.5,0.5-1.3,0.8-2.2,0.8C150.3,56.5,149.2,55.9,148.5,54.7L148.5,54.7z M159.2,56.3v-0.9V48v-0.8h1.9V48v7.4v0.9H159.2L159.2,56.3  z M168.5,56.3v-7.3h-2.2v-1.8h6.3v1.8h-2.2v7.3H168.5L168.5,56.3z M178.5,56.3v-3.6l-2.6-5.5h2l1.6,3.4l1.6-3.4h2l-2.6,5.5v3.6  H178.5L178.5,56.3z M131.7,22.5c-0.4-0.7-0.9-1.3-1.6-1.8c-0.7-0.5-1.5-0.8-2.5-0.8c-0.9,0-1.5,0.2-2,0.6c-0.4,0.4-0.7,0.7-0.8,1.1  c-0.1,0.4-0.1,0.6-0.1,0.8c0,0.9,0.4,1.6,1,2c0.6,0.4,1.3,0.8,2,1l2.9,1.1c0.7,0.3,1.4,0.6,2.1,1.1c0.7,0.5,1.3,1,1.8,1.7  c0.2,0.2,0.4,0.7,0.7,1.4c0.3,0.7,0.5,1.7,0.5,2.8c0,0.4,0,0.9-0.1,1.7c-0.1,0.7-0.4,1.5-0.8,2.3c-0.5,0.8-1.2,1.6-2.3,2.3  c-0.7,0.4-1.4,0.7-2.3,0.9c-0.8,0.2-1.5,0.3-2.1,0.3c-2,0-3.6-0.3-5-1c-1.3-0.7-2.4-1.9-3.4-3.8l3.7-2.6c0.4,1,1,1.8,1.7,2.3  c0.8,0.6,1.7,0.9,2.7,0.9c0.4,0,0.8-0.1,1.3-0.2c0.5-0.2,0.9-0.5,1.3-0.9c0.4-0.4,0.6-1,0.6-1.8c0-0.6-0.1-1.1-0.4-1.5  c-0.3-0.4-0.7-0.7-1.4-1.1c-0.6-0.3-1.5-0.7-2.7-1.2c-1.2-0.5-2.3-1-3.2-1.6c-1-0.6-1.7-1.4-2.3-2.4c-0.6-1-0.9-2.2-0.9-3.8  c0-2,0.7-3.6,1.9-4.9c1.3-1.2,3.1-1.9,5.5-1.9c1.7,0,3.1,0.4,4.3,1.1c1.2,0.7,2.3,1.7,3.2,3.1L131.7,22.5L131.7,22.5z M28.9,31.3  v-6.5c0-1.3,0.1-2.5,0.4-3.6c0.3-1.2,0.8-2.2,1.6-3.1c0.7-0.8,1.6-1.4,2.6-1.8c1-0.4,2.1-0.5,3.2-0.5c1.2,0,2.3,0.2,3.3,0.5  c1,0.4,2,1,2.7,1.8c0.6,0.7,1.1,1.7,1.5,2.8c0.3,1.2,0.5,2.8,0.5,4.7v5.9c0,1.7-0.1,3.1-0.4,4.3c-0.3,1.2-0.8,2.2-1.5,3  c-0.7,0.7-1.4,1.3-2.1,1.6c-0.8,0.3-1.5,0.6-2.2,0.7c-0.7,0.1-1.3,0.2-1.8,0.1c-0.8,0-1.6-0.1-2.6-0.4c-1-0.3-1.8-0.8-2.7-1.5  c-0.8-0.7-1.5-1.8-1.9-3.1c-0.2-0.9-0.4-1.8-0.5-2.7C28.9,32.6,28.9,31.8,28.9,31.3L28.9,31.3z M34.1,23.9v8.5  c0,1.3,0.1,2.4,0.5,3.1c0.4,0.8,1.1,1.2,2.2,1.2c0.9,0,1.5-0.3,1.9-0.8c0.4-0.5,0.6-1.1,0.7-1.7c0.1-0.7,0.1-1.3,0.1-1.9v-8.5  c0-0.6,0-1.2-0.1-1.7c-0.1-0.6-0.3-1-0.7-1.4c-0.4-0.4-1-0.6-1.9-0.6c-0.9,0-1.6,0.3-2,0.8c-0.4,0.5-0.6,1-0.7,1.6  C34.1,23.1,34.1,23.6,34.1,23.9L34.1,23.9z"/>
</svg>